<?xml version="1.0" standalone="no"?>
<!DOCTYPE svg PUBLIC "-//W3C//DTD SVG 20010904//EN"
 "http://www.w3.org/TR/2001/REC-SVG-20010904/DTD/svg10.dtd">
<svg version="1.0" xmlns="http://www.w3.org/2000/svg"
 width="160.000000pt" height="107.000000pt" viewBox="0 0 160.000000 107.000000"
 preserveAspectRatio="xMidYMid meet">

<g transform="translate(0.000000,107.000000) scale(0.100000,-0.100000)"
fill="#000000" stroke="none">
<path d="M767 922 c-10 -2 -27 -24 -39 -50 l-20 -47 -14 40 c-7 22 -14 41 -14
43 0 1 -7 2 -15 2 -8 0 -22 -11 -31 -26 -19 -28 -54 -147 -54 -182 0 -38 32
-23 57 27 l22 43 6 -28 c12 -54 28 -71 53 -55 14 9 82 184 82 212 0 21 -9 27
-33 21z"/>
<path d="M1078 843 c-9 -10 -24 -34 -34 -53 l-19 -35 -3 42 c-3 40 -18 58 -40
45 -5 -4 -14 -40 -17 -79 -7 -71 -7 -72 18 -84 21 -10 31 -9 50 4 34 22 99
135 92 158 -8 24 -27 24 -47 2z"/>
<path d="M827 820 c-29 -23 -43 -74 -33 -115 6 -24 10 -26 58 -23 42 2 55 8
71 30 24 32 28 105 7 118 -25 16 -76 11 -103 -10z m63 -66 c0 -16 -23 -44 -35
-44 -18 0 -20 21 -3 38 12 12 38 17 38 6z"/>
<path d="M1167 829 c-40 -24 -62 -114 -33 -138 8 -7 34 -11 57 -9 32 2 47 9
63 31 25 33 28 103 6 117 -20 13 -70 12 -93 -1z m53 -75 c0 -16 -23 -44 -35
-44 -18 0 -20 21 -3 38 12 12 38 17 38 6z"/>
<path d="M200 712 c-29 -14 -41 -33 -81 -122 -26 -58 -62 -147 -79 -198 -31
-87 -32 -96 -19 -134 16 -51 35 -57 143 -54 118 5 152 36 110 101 -18 27 -46
31 -90 15 -15 -6 -29 -9 -31 -6 -2 2 32 75 76 162 44 88 82 173 86 190 12 59
-44 82 -115 46z"/>
<path d="M483 690 c-30 -12 -40 -50 -17 -67 26 -19 61 -16 84 7 11 11 20 23
20 28 -1 29 -50 47 -87 32z"/>
<path d="M770 541 c-21 -22 -48 -67 -61 -100 -27 -69 -39 -63 -39 19 0 34 -6
64 -16 78 -17 25 -56 29 -74 7 -19 -22 -46 -258 -34 -292 11 -33 70 -59 109
-49 44 11 101 75 170 190 61 101 65 113 58 145 -8 31 -13 36 -42 39 -27 3 -39
-3 -71 -37z"/>
<path d="M1045 556 c-16 -7 -44 -11 -60 -9 -21 3 -35 -1 -47 -14 -14 -16 -75
-191 -92 -266 -9 -40 9 -67 44 -67 48 0 77 36 103 128 26 89 45 117 93 137 38
16 51 48 33 81 -14 27 -30 29 -74 10z"/>
<path d="M427 539 c-33 -19 -98 -178 -113 -274 -5 -36 -3 -50 11 -65 22 -24
28 -25 77 -3 32 14 40 24 48 57 5 23 24 92 41 154 25 91 29 115 19 127 -14 17
-57 19 -83 4z"/>
<path d="M1250 536 c-14 -7 -37 -19 -51 -24 -42 -16 -84 -111 -84 -188 0 -73
17 -98 77 -115 130 -35 242 63 243 213 0 60 -3 70 -27 94 -32 33 -117 44 -158
20z m56 -188 c-8 -41 -33 -68 -63 -68 -16 0 -23 6 -23 19 0 27 48 81 72 81 18
0 20 -4 14 -32z"/>
</g>
</svg>
